<?xml version="1.0" standalone="no"?>
<!DOCTYPE svg PUBLIC "-//W3C//DTD SVG 20010904//EN"
 "http://www.w3.org/TR/2001/REC-SVG-20010904/DTD/svg10.dtd">
<svg version="1.0" xmlns="http://www.w3.org/2000/svg"
 width="500.000000pt" height="707.000000pt" viewBox="0 0 500.000000 707.000000"
 preserveAspectRatio="xMidYMid meet">
<metadata>
Created by potrace 1.10, written by Peter Selinger 2001-2011
</metadata>
<g transform="translate(0.000000,707.000000) scale(0.050000,-0.050000)"
fill="#ffffff" stroke="none">
<path d="M8793 14110 c-7 -16 -3 -30 7 -30 11 0 17 -20 15 -45 -4 -34 4 -43
32 -39 26 5 32 -1 21 -20 -12 -20 -8 -20 18 1 19 16 34 38 34 50 0 13 -9 10
-20 -7 -14 -22 -19 -23 -20 -4 0 15 -9 21 -20 14 -11 -7 -20 2 -20 19 0 19 18
31 47 31 26 0 46 12 46 28 0 29 -26 31 -68 5 -14 -9 -25 -6 -25 6 0 32 -34 25
-47 -9z"/>
<path d="M8808 13909 c3 -28 16 -59 29 -70 16 -13 17 -12 4 4 -13 16 -8 33 15
52 19 15 23 22 9 15 -15 -7 -25 0 -25 19 0 17 -8 31 -19 31 -10 0 -16 -23 -13
-51z"/>
<path d="M4595 11086 c59 -6 85 -18 85 -38 0 -17 -8 -25 -19 -19 -10 6 -24 3
-31 -9 -7 -11 10 -20 40 -20 114 0 55 90 -60 92 -90 2 -91 1 -15 -6z"/>
<path d="M4131 11046 c-14 -38 58 -123 83 -98 9 8 0 27 -19 41 -76 55 -40 73
125 64 88 -6 165 -1 171 9 7 10 -64 18 -168 18 -149 0 -181 -6 -192 -34z"/>
<path d="M3625 11047 c-14 -6 -25 -37 -25 -69 0 -85 50 -74 52 12 0 39 0 69 0
68 -1 0 -13 -6 -27 -11z"/>
<path d="M3680 11020 c0 -11 42 -20 93 -20 59 0 107 -12 130 -33 35 -31 37
-31 37 8 0 25 -17 45 -45 52 -72 20 -215 15 -215 -7z"/>
<path d="M4000 10995 c0 -14 -6 -45 -13 -70 -7 -27 -3 -45 11 -45 12 0 22 11
22 25 1 45 33 77 65 64 18 -7 28 -25 22 -41 -6 -15 -1 -28 11 -28 28 0 28 31
1 81 -23 43 -119 54 -119 14z"/>
<path d="M4350 10980 c-7 -11 -6 -30 1 -42 8 -12 13 -57 13 -100 -1 -43 8 -78
20 -78 14 0 17 34 8 100 -11 82 -8 100 17 100 22 0 31 -20 31 -69 0 -97 34
-107 43 -12 4 43 5 88 1 100 -9 27 -118 28 -134 1z"/>
<path d="M4573 10987 c-7 -8 -13 -125 -13 -260 0 -237 -2 -247 -42 -247 -38 0
-41 9 -35 140 4 77 0 140 -8 140 -31 0 -17 -315 15 -327 78 -30 88 1 94 289 3
153 5 278 4 278 -1 0 -7 -6 -15 -13z"/>
<path d="M4765 10967 c-54 -22 -21 -43 52 -33 82 11 206 -75 188 -130 -5 -13
1 -24 13 -24 55 0 -3 122 -78 167 -55 32 -124 40 -175 20z"/>
<path d="M3730 10835 c11 -72 6 -92 -28 -124 -23 -20 -42 -47 -41 -59 0 -12 9
-6 21 13 28 48 54 44 64 -10 5 -25 10 25 11 110 2 98 -5 155 -18 155 -14 0
-17 -30 -9 -85z"/>
<path d="M5125 10854 c-25 -37 -44 -84 -43 -105 1 -29 4 -31 12 -9 7 17 38 64
71 105 36 46 48 75 32 75 -15 0 -47 -30 -72 -66z"/>
<path d="M5340 10900 c0 -11 14 -20 30 -20 17 0 30 -12 30 -28 0 -15 14 -38
30 -52 51 -43 37 27 -16 77 -51 47 -74 54 -74 23z"/>
<path d="M4772 10853 c-100 -76 -52 -273 67 -273 49 0 121 67 121 113 0 24
-11 18 -41 -20 -83 -105 -211 -18 -159 107 30 73 88 79 154 17 50 -48 62 -27
20 32 -32 43 -120 56 -162 24z"/>
<path d="M4131 10842 c-14 -23 36 -131 69 -152 12 -7 6 26 -13 74 -41 105 -40
104 -56 78z"/>
<path d="M5213 10819 c-29 -23 -53 -52 -53 -64 0 -12 22 -1 49 24 60 57 151
17 151 -66 0 -130 -122 -146 -169 -23 -11 28 -19 32 -26 13 -13 -35 59 -131
104 -140 103 -20 159 201 67 266 -57 39 -60 39 -123 -10z"/>
<path d="M3942 10739 c-14 -46 -22 -86 -18 -89 15 -15 71 127 57 148 -8 14
-24 -9 -39 -59z"/>
<path d="M4033 10767 c-21 -22 -15 -71 7 -57 11 7 20 1 20 -13 0 -17 6 -19 21
-4 11 11 15 35 8 54 -14 35 -33 42 -56 20z"/>
<path d="M3820 10620 c0 -80 -9 -140 -20 -140 -11 0 -20 27 -20 60 0 33 -10
60 -21 60 -12 0 -19 -32 -15 -75 6 -79 64 -116 98 -62 24 38 22 297 -2 297
-11 0 -20 -60 -20 -140z"/>
<path d="M5460 10723 c0 -129 -101 -226 -218 -210 -63 9 -84 6 -74 -10 29 -47
186 -27 243 30 48 48 96 227 60 227 -6 0 -11 -17 -11 -37z"/>
<path d="M3231 10688 c-43 -43 -72 -100 -58 -115 7 -6 31 17 55 51 56 83 92
94 92 28 0 -29 9 -52 20 -52 39 0 19 -31 -45 -67 -36 -20 -54 -25 -40 -11 31
32 33 118 3 118 -13 0 -18 -18 -12 -40 6 -22 2 -40 -9 -40 -38 0 -41 -62 -5
-90 48 -36 90 -38 77 -4 -6 15 13 52 41 82 39 42 46 62 30 82 -15 19 -16 30
-1 40 36 21 2 50 -59 50 -31 0 -71 -14 -89 -32z"/>
<path d="M4380 10640 c0 -44 9 -80 20 -80 11 0 20 36 20 80 0 44 -9 80 -20 80
-11 0 -20 -36 -20 -80z"/>
<path d="M5605 10641 c0 -61 11 -87 46 -110 32 -21 42 -42 34 -72 -6 -25 0
-50 15 -59 39 -24 47 -316 9 -353 -34 -35 -39 -87 -7 -87 12 0 17 13 11 29 -6
15 2 38 17 51 15 13 31 56 34 97 5 62 13 72 51 68 38 -4 45 5 45 55 0 69 -31
80 -50 19 -20 -61 -74 -11 -58 54 7 26 3 59 -7 72 -25 31 -3 90 55 151 43 45
43 48 7 90 -95 113 -202 110 -202 -5z m112 16 c-22 -14 -20 -23 8 -45 19 -14
35 -33 35 -42 0 -8 -13 -4 -30 10 -36 30 -40 -1 -5 -38 20 -20 15 -20 -29 -1
-59 27 -97 86 -42 65 25 -10 30 -5 19 22 -17 47 1 73 39 58 25 -9 26 -15 5
-29z"/>
<path d="M4280 10632 c0 -38 9 -75 20 -82 12 -7 20 16 20 58 0 38 -9 75 -20
82 -12 7 -20 -16 -20 -58z"/>
<path d="M4641 10656 c-3 -134 181 -215 309 -136 73 45 123 160 69 160 -11 0
-18 -12 -15 -26 18 -77 -176 -182 -225 -123 -13 16 -34 29 -47 29 -12 0 -38
34 -56 75 -32 71 -34 72 -35 21z"/>
<path d="M5082 10669 c-2 -47 50 -129 83 -129 12 0 3 20 -20 45 -22 25 -45 63
-51 85 -9 40 -9 40 -12 -1z"/>
<path d="M3998 10556 c-31 -108 -53 -135 -79 -96 -16 26 -18 25 -19 -3 -1
-102 101 -33 131 88 14 58 76 77 97 30 6 -14 9 -7 6 15 -10 87 -109 63 -136
-34z"/>
<path d="M4209 10585 c7 -62 -28 -117 -45 -68 -4 13 -16 18 -26 12 -31 -19 1
-49 52 -49 66 0 76 26 41 104 l-30 66 8 -65z"/>
<path d="M4300 10505 c0 -34 58 -70 91 -57 17 6 26 21 19 32 -7 11 -22 15 -32
9 -11 -7 -33 -2 -49 12 -17 14 -29 15 -29 4z"/>
<path d="M3113 10487 c-21 -21 -15 -107 7 -107 11 0 20 22 20 48 0 27 11 53
25 59 16 6 14 10 -7 11 -17 1 -37 -4 -45 -11z"/>
<path d="M3240 10301 c0 -65 7 -123 16 -129 9 -5 17 48 17 119 1 71 -7 129
-16 129 -9 0 -17 -53 -17 -119z"/>
<path d="M3818 10295 c-49 -61 -138 -219 -138 -244 0 -47 50 12 107 124 66
131 70 135 142 133 79 -3 74 21 -9 41 -40 10 -60 -1 -102 -54z"/>
<path d="M4456 10338 c-48 -27 -102 -138 -67 -138 15 0 32 23 39 51 27 104
150 46 185 -86 14 -55 47 -60 47 -7 0 84 -146 213 -204 180z"/>
<path d="M5022 10324 c-16 -31 -3 -73 63 -206 48 -97 87 -154 91 -134 3 18
-26 93 -65 165 -85 157 -86 171 -21 171 34 0 58 -15 70 -45 11 -25 28 -58 38
-75 10 -16 34 -68 53 -115 34 -82 69 -112 69 -60 0 150 -246 397 -298 299z"/>
<path d="M3147 10275 c7 -25 13 -52 13 -60 0 -8 8 -15 18 -15 29 0 43 87 16
104 -43 27 -59 17 -47 -29z"/>
<path d="M3946 10242 c-6 -23 -19 -42 -28 -42 -10 0 -18 -18 -18 -40 0 -22 -7
-40 -16 -40 -9 0 -31 -44 -48 -98 -26 -81 -26 -97 -4 -88 16 6 28 21 28 33 0
13 30 84 67 159 37 74 59 140 49 147 -10 6 -24 -8 -30 -31z"/>
<path d="M3070 10240 c-7 -11 -7 -38 0 -60 9 -28 4 -40 -19 -40 -42 0 -39 -46
9 -125 50 -82 53 -139 7 -121 -23 9 -29 5 -19 -11 27 -44 92 -27 92 25 0 56
34 75 85 49 23 -12 35 -11 35 3 0 34 -62 48 -101 24 -29 -18 -41 -14 -67 26
-40 61 -41 92 -2 77 36 -13 42 53 8 87 -15 15 -15 25 0 35 12 7 22 22 22 32 0
25 -34 24 -50 -1z"/>
<path d="M5896 10155 c-5 -47 -2 -88 7 -91 8 -4 7 -28 -3 -55 -10 -26 -12 -52
-3 -57 8 -5 30 30 48 78 25 69 27 89 6 97 -16 6 -22 30 -16 61 5 29 1 52 -11
52 -11 0 -24 -38 -28 -85z"/>
<path d="M4340 10161 c0 -10 9 -24 20 -31 81 -50 -8 -390 -154 -589 -139 -189
-127 -186 -175 -56 -29 78 -41 94 -46 61 -4 -24 7 -70 24 -104 17 -33 31 -74
31 -91 0 -58 62 -31 91 39 16 39 38 70 49 70 11 0 20 13 20 29 0 16 17 39 39
50 117 63 236 529 155 610 -35 35 -54 40 -54 12z"/>
<path d="M3140 10140 c0 -11 9 -20 20 -20 11 0 20 -18 20 -40 0 -22 9 -40 20
-40 11 0 20 27 20 60 0 47 -9 60 -40 60 -22 0 -40 -9 -40 -20z"/>
<path d="M5804 10127 c9 -51 56 -57 56 -9 0 25 -13 42 -31 42 -19 0 -29 -14
-25 -33z"/>
<path d="M3240 10116 c0 -18 10 -59 23 -90 27 -67 36 -204 13 -218 -9 -6 -17
6 -18 26 0 20 -6 25 -11 12 -5 -13 -25 -18 -43 -12 -19 7 -1 -14 38 -46 97
-77 149 -165 108 -181 -17 -6 -30 -24 -30 -40 0 -22 9 -24 40 -7 51 28 51 89
-1 162 -29 41 -43 96 -47 183 -5 109 -72 304 -72 211z"/>
<path d="M4580 10052 c0 -98 40 -272 62 -272 23 0 23 14 -3 100 -11 39 -21
104 -22 145 -2 96 -37 121 -37 27z"/>
<path d="M5795 10006 c-30 -5 -55 -19 -55 -32 0 -30 104 -33 125 -5 19 27 19
52 0 48 -8 -2 -40 -7 -70 -11z"/>
<path d="M3642 9937 c-48 -136 -15 -637 42 -637 18 0 4 108 -19 148 -20 34
-10 422 13 478 27 68 27 74 4 74 -10 0 -28 -28 -40 -63z"/>
<path d="M5300 9954 c0 -15 12 -43 27 -64 15 -20 23 -52 18 -71 -4 -19 1 -41
13 -48 28 -17 29 -185 0 -202 -12 -7 -16 -34 -10 -60 7 -25 4 -49 -6 -52 -9
-4 -23 -38 -31 -77 -12 -64 -10 -67 17 -33 87 109 80 633 -9 633 -11 0 -19
-12 -19 -26z"/>
<path d="M2765 9867 c-54 -38 -65 -167 -15 -167 34 0 40 31 10 50 -38 24 -20
65 40 90 33 14 60 33 60 42 0 27 -45 20 -95 -15z"/>
<path d="M5866 9873 c4 -13 24 -23 44 -23 20 0 40 10 44 23 4 12 -15 22 -44
22 -29 0 -48 -10 -44 -22z"/>
<path d="M6173 9875 c8 -14 36 -41 61 -61 53 -42 60 -74 16 -74 -16 0 -30 -10
-30 -21 0 -12 16 -19 35 -15 59 11 55 105 -7 154 -59 47 -99 56 -75 17z"/>
<path d="M5742 9825 c-2 -53 28 -58 74 -11 32 31 31 33 -10 22 -25 -7 -48 -2
-53 11 -6 13 -11 3 -11 -22z"/>
<path d="M4480 9809 c0 -18 -19 -59 -42 -92 -23 -33 -36 -66 -29 -73 17 -17
71 53 71 91 0 15 9 22 20 15 11 -7 20 6 20 28 0 22 -9 45 -20 52 -11 7 -20 -3
-20 -21z"/>
<path d="M5680 9803 c0 -20 -18 -53 -41 -74 -51 -46 -47 -155 6 -165 19 -4 35
3 35 15 0 11 -13 21 -30 21 -42 0 -37 27 20 112 52 77 64 128 30 128 -11 0
-20 -17 -20 -37z"/>
<path d="M2940 9803 c0 -9 23 -35 50 -59 87 -76 58 -144 -60 -144 -52 0 -80
-28 -60 -60 8 -13 26 -13 53 2 22 11 46 15 54 7 7 -8 1 -19 -13 -24 -20 -7
-16 -21 17 -56 26 -27 45 -76 48 -122 8 -135 11 -147 31 -147 31 0 24 195 -9
259 -29 56 -7 160 34 161 8 0 15 23 15 51 0 49 1 49 59 20 69 -36 109 -40 90
-10 -7 12 -18 17 -23 12 -6 -6 -30 7 -53 29 -24 22 -59 36 -78 31 -19 -5 -35
-2 -35 7 0 9 -27 25 -60 37 -33 12 -60 14 -60 6z"/>
<path d="M5870 9746 c-126 -65 -132 -75 -98 -172 42 -119 36 -424 -11 -576
-28 -88 -33 -133 -19 -151 31 -37 74 -11 88 55 7 32 24 65 37 73 32 21 124
201 110 215 -11 10 -46 -44 -182 -279 -44 -76 -51 -7 -8 77 55 106 51 572 -5
639 -23 29 93 93 184 103 20 2 49 16 65 32 51 51 -50 41 -161 -16z"/>
<path d="M3820 9715 c1 -48 31 -70 93 -68 45 2 58 10 44 26 -10 13 -36 18 -58
13 -27 -7 -39 -1 -39 22 0 17 -9 32 -20 32 -11 0 -20 -11 -20 -25z"/>
<path d="M4640 9731 c0 -22 92 -162 144 -219 32 -34 67 -96 80 -137 12 -41 29
-75 37 -75 25 0 121 185 113 219 -4 18 -25 -8 -53 -64 l-46 -96 -57 91 c-32
50 -58 100 -58 111 0 10 -9 19 -19 19 -11 0 -40 36 -65 80 -39 68 -76 103 -76
71z"/>
<path d="M2820 9686 c0 -14 -7 -26 -16 -26 -8 0 -31 -26 -50 -58 -67 -115 -26
-219 76 -194 45 12 50 7 50 -48 0 -33 9 -60 20 -60 29 0 25 98 -5 128 -14 13
-52 24 -85 23 -89 -2 -84 70 13 169 89 92 91 99 37 95 -22 -2 -40 -15 -40 -29z"/>
<path d="M4530 9677 c19 -66 117 -225 133 -215 16 10 97 -62 97 -88 0 -10 -13
-8 -29 5 -18 15 -100 24 -221 24 -166 -1 -190 3 -169 28 13 16 16 29 7 29 -9
0 2 13 26 30 28 20 39 43 32 70 -14 51 -47 52 -60 0 -6 -22 -19 -40 -28 -40
-10 0 -18 -10 -18 -22 0 -12 -22 -40 -50 -62 -57 -45 -69 -123 -17 -112 19 3
38 19 43 34 6 17 0 22 -13 14 -34 -21 -28 19 7 48 25 21 30 18 30 -13 0 -35
15 -37 179 -31 133 4 195 -2 239 -25 127 -66 111 19 -33 180 -63 71 -115 139
-115 152 0 13 -12 28 -27 33 -20 6 -24 -4 -13 -39z"/>
<path d="M5140 9700 c0 -11 -27 -20 -60 -20 -43 0 -60 -10 -60 -34 0 -26 5
-29 24 -10 13 13 49 24 80 24 36 0 56 10 56 30 0 17 -9 30 -20 30 -11 0 -20
-9 -20 -20z"/>
<path d="M6106 9693 c4 -13 24 -23 44 -23 20 0 40 10 44 23 4 12 -15 22 -44
22 -29 0 -48 -10 -44 -22z"/>
<path d="M6180 9648 c0 -7 23 -39 50 -72 56 -66 68 -42 18 35 -30 45 -68 66
-68 37z"/>
<path d="M3211 9596 c-35 -50 -42 -156 -11 -156 11 0 20 22 20 49 0 26 9 71
20 100 23 63 12 65 -29 7z"/>
<path d="M3720 9580 c0 -58 29 -83 44 -37 12 34 90 -13 106 -63 7 -22 21 -40
31 -40 25 0 24 34 -1 50 -12 7 -16 21 -10 30 6 10 -16 33 -50 53 -33 20 -60
43 -60 51 0 9 -13 16 -30 16 -20 0 -30 -20 -30 -60z"/>
<path d="M5955 9608 c-7 -7 1 -26 17 -43 25 -25 26 -34 5 -47 -19 -11 -25 -54
-20 -142 8 -158 23 -179 23 -32 0 116 30 164 110 179 71 13 47 67 -30 67 -38
0 -75 7 -81 15 -7 9 -17 10 -24 3z"/>
<path d="M5157 9566 c-17 -20 -53 -81 -80 -136 -27 -55 -65 -124 -85 -154 -41
-63 -33 -82 48 -123 61 -31 175 19 135 58 -8 9 -31 1 -50 -16 -25 -23 -45 -27
-70 -13 -38 21 -47 88 -16 107 11 7 43 65 72 130 52 116 126 188 103 101 -11
-42 14 -55 37 -18 28 45 -59 104 -94 64z"/>
<path d="M3282 9300 c1 -110 10 -205 20 -211 10 -7 18 78 18 200 0 129 -8 211
-20 211 -13 0 -20 -77 -18 -200z"/>
<path d="M6249 9473 c-11 -28 -28 -34 -71 -26 -88 18 -122 -29 -106 -148 13
-97 -23 -219 -73 -249 -10 -7 -19 -26 -19 -43 0 -25 5 -25 34 4 75 75 109 171
102 287 l-6 112 75 -7 c54 -4 78 3 87 25 18 47 -4 91 -23 45z"/>
<path d="M5192 9366 c-37 -108 -37 -106 -16 -106 9 0 28 34 43 75 15 41 31 86
36 100 5 14 0 25 -11 25 -11 0 -35 -42 -52 -94z"/>
<path d="M3782 9315 c23 -58 47 -117 52 -131 25 -60 88 -69 143 -21 29 26 56
48 60 50 14 7 -40 87 -58 87 -14 0 -14 -13 0 -37 29 -55 -43 -121 -90 -83 -17
15 -26 39 -20 54 6 16 3 23 -7 17 -9 -5 -32 30 -51 79 -19 50 -42 90 -52 90
-10 0 0 -47 23 -105z"/>
<path d="M5280 9281 c0 -10 -31 -73 -70 -138 -67 -115 -92 -199 -50 -173 11 7
20 25 20 39 0 15 32 75 70 134 71 107 87 157 50 157 -11 0 -20 -9 -20 -19z"/>
<path d="M2881 9229 c-2 -96 103 -281 144 -256 13 8 15 3 6 -11 -8 -14 -1 -40
15 -58 37 -42 47 -99 26 -161 -37 -108 115 -223 294 -223 112 0 127 -43 42
-122 -28 -26 -64 -72 -80 -102 -30 -58 -40 -289 -10 -236 9 17 16 66 14 109
-2 44 9 93 23 110 181 206 181 281 0 281 -158 0 -278 85 -239 169 23 50 -6
191 -39 191 -10 0 -17 12 -17 27 0 15 -19 44 -42 65 -42 37 -55 63 -110 208
l-26 70 -1 -61z"/>
<path d="M4355 9258 c-30 -8 -55 -10 -55 -5 0 5 -29 -11 -64 -36 -35 -25 -79
-46 -99 -48 -85 -6 -222 -289 -141 -289 8 0 25 18 39 39 20 33 20 38 -5 28
-44 -17 -36 26 11 59 22 16 38 40 35 53 -3 13 17 39 44 57 l50 33 -40 -50
c-39 -49 -39 -49 20 3 122 105 204 138 344 138 73 0 126 6 118 14 -20 20 -190
23 -257 4z"/>
<path d="M3680 9243 c0 -9 35 -67 79 -129 101 -145 109 -259 20 -305 -53 -27
-60 -26 -105 19 -33 33 -71 48 -122 48 -54 0 -83 13 -112 50 -21 27 -59 54
-82 60 -33 9 -22 -8 41 -67 63 -59 101 -79 150 -79 42 0 84 -18 119 -50 57
-52 92 -64 92 -30 0 11 12 20 28 20 79 0 118 230 49 293 -23 20 -58 71 -80
112 -34 68 -77 100 -77 58z"/>
<path d="M4650 9240 c24 -38 134 -84 154 -64 12 12 -11 31 -63 51 -95 38 -108
40 -91 13z"/>
<path d="M2994 9227 c-16 -16 13 -70 98 -181 37 -49 68 -100 68 -114 0 -14 18
-46 40 -72 56 -65 74 -9 43 139 -12 63 -23 142 -23 177 0 35 -9 64 -20 64 -30
0 -24 -125 10 -207 43 -104 41 -186 -4 -103 -17 33 -57 93 -89 133 -32 40 -70
97 -84 125 -15 28 -32 46 -39 39z"/>
<path d="M4833 9166 c-7 -7 5 -25 27 -41 23 -15 35 -38 27 -50 -8 -13 -2 -17
16 -11 18 7 41 -10 62 -46 39 -68 -28 -83 -125 -28 -57 32 -120 39 -120 12 0
-16 58 -38 140 -54 167 -32 160 -33 160 20 0 27 -13 63 -30 79 -16 17 -30 40
-30 51 0 26 -110 85 -127 68z"/>
<path d="M4383 9042 c-20 -12 -15 -20 20 -29 106 -28 269 -6 214 29 -35 22
-199 22 -234 0z"/>
<path d="M5605 8978 c-71 -80 -81 -103 -35 -85 17 6 30 24 30 40 0 16 7 25 15
20 27 -17 79 36 67 67 -9 24 -27 15 -77 -42z"/>
<path d="M4143 8987 c-37 -16 -62 -34 -56 -41 15 -15 190 34 205 57 16 26 -74
17 -149 -16z"/>
<path d="M5909 8890 c-18 -43 -25 -98 -18 -145 18 -113 -51 -171 -218 -181
-125 -8 -195 -53 -162 -105 19 -31 45 -22 42 16 -2 28 19 37 110 47 194 21
324 138 263 236 -17 28 -14 54 15 119 20 46 28 83 17 83 -11 0 -33 -31 -49
-70z"/>
<path d="M4320 8878 c0 -12 14 -17 30 -11 26 10 30 -24 30 -236 0 -144 8 -254
20 -261 13 -8 20 83 20 259 l0 271 -50 0 c-27 0 -50 -10 -50 -22z"/>
<path d="M4155 8854 c-30 -12 -55 -29 -55 -38 0 -25 28 -19 123 24 96 43 38
56 -68 14z"/>
<path d="M4790 8839 c44 -21 131 -57 193 -80 102 -36 387 -284 413 -358 13
-36 -64 -6 -104 41 -68 80 -132 124 -82 56 21 -28 68 -73 103 -100 36 -26 81
-77 101 -113 19 -36 41 -65 48 -65 7 0 18 -18 24 -40 11 -44 94 -57 94 -15 0
89 -344 493 -501 590 -68 41 -306 126 -349 124 -11 -1 16 -19 60 -40z"/>
<path d="M5140 8855 c0 -88 134 -132 197 -65 26 28 60 50 75 50 15 0 28 9 28
20 0 35 -55 22 -114 -28 -61 -51 -106 -44 -161 24 -23 29 -25 29 -25 -1z"/>
<path d="M4577 8718 c-7 -126 -3 -144 26 -126 23 14 22 248 -1 248 -10 0 -21
-55 -25 -122z"/>
<path d="M3268 8765 c-50 -45 -58 -64 -47 -105 9 -30 16 -37 17 -16 4 72 97
145 153 119 28 -13 85 -23 128 -23 91 0 116 -39 68 -111 -19 -29 -23 -49 -10
-49 12 0 37 28 55 63 40 79 -8 128 -141 143 -45 5 -99 15 -121 21 -27 9 -60
-5 -102 -42z"/>
<path d="M3990 8791 c-33 -14 -100 -58 -148 -99 -48 -41 -105 -83 -125 -94
-20 -10 -37 -33 -37 -49 0 -16 -8 -29 -18 -29 -9 0 -28 -27 -42 -60 -14 -33
-32 -60 -40 -60 -8 0 -41 -38 -72 -85 -32 -47 -66 -91 -76 -98 -20 -15 4 -237
25 -237 8 0 25 10 38 23 17 17 20 13 12 -18 -9 -36 23 -82 44 -61 20 20 -40
157 -65 147 -14 -5 -26 -1 -26 10 0 10 7 19 16 19 9 0 27 32 41 70 14 39 32
70 40 70 8 0 30 27 50 60 28 47 29 57 6 48 -30 -11 -120 -133 -139 -188 -8
-23 -11 -21 -12 7 -2 33 38 94 124 193 15 17 48 62 74 100 43 62 103 125 213
220 19 17 75 49 124 72 97 45 91 81 -7 39z"/>
<path d="M5600 8795 c-27 -11 -79 -19 -115 -16 -36 2 -65 -6 -65 -17 0 -27
100 -29 169 -3 52 20 207 -56 177 -87 -7 -6 3 -12 22 -12 59 0 27 58 -58 108
-65 38 -90 43 -130 27z"/>
<path d="M4840 8762 c0 -10 31 -29 69 -42 37 -12 72 -33 77 -46 5 -13 16 -17
25 -9 9 9 8 24 -2 34 -32 32 -169 83 -169 63z"/>
<path d="M5360 8709 c-28 -33 40 -129 91 -129 36 0 131 81 118 101 -6 10 -35
-3 -64 -31 -61 -56 -137 -21 -114 53 14 45 2 47 -31 6z"/>
<path d="M3980 8684 c-27 -19 -53 -41 -57 -49 -3 -8 -14 -15 -24 -15 -9 0 -41
-22 -71 -50 -86 -80 -41 -58 104 50 125 93 160 140 48 64z"/>
<path d="M4180 8684 c-220 -73 -529 -364 -424 -399 14 -5 19 4 13 21 -12 31
68 120 188 210 40 29 78 58 83 64 58 59 219 98 285 70 27 -11 33 -7 24 16 -18
45 -69 51 -169 18z"/>
<path d="M4679 8675 c-43 -46 -49 -129 -24 -315 14 -103 16 -97 25 100 10 220
10 219 104 198 54 -13 40 31 -15 45 -37 10 -61 3 -90 -28z"/>
<path d="M4880 8640 c0 -10 34 -36 75 -58 96 -49 265 -208 265 -250 0 -35 -31
-43 -49 -13 -20 32 -195 144 -207 132 -6 -6 8 -29 31 -50 23 -22 67 -86 98
-142 30 -57 59 -93 63 -81 4 12 -12 53 -36 92 -48 77 -31 92 35 30 24 -22 55
-35 70 -29 18 7 26 -7 26 -45 -1 -47 7 -56 49 -56 40 0 50 10 50 49 0 36 -13
52 -50 61 -32 7 -52 28 -56 56 -13 90 -364 383 -364 304z"/>
<path d="M4603 8325 c-2 -125 5 -205 17 -205 23 0 24 190 1 320 -13 74 -16 54
-18 -115z"/>
<path d="M3966 8421 c-19 -23 -41 -41 -50 -41 -17 0 -116 -97 -116 -114 0 -7
22 8 50 34 67 63 81 41 29 -47 -23 -40 -39 -82 -36 -93 4 -11 32 25 62 82 30
56 50 110 44 120 -6 10 6 18 28 18 21 0 44 13 50 29 18 48 -23 56 -61 12z"/>
<path d="M4175 8369 c-19 -39 -34 -91 -34 -115 2 -42 3 -42 25 6 13 28 31 56
41 63 10 7 12 23 4 35 -8 13 0 22 19 22 19 0 30 11 25 24 -15 47 -46 34 -80
-35z"/>
<path d="M5543 8405 c20 -43 109 -165 122 -165 29 0 14 43 -37 111 -46 60
-104 97 -85 54z"/>
<path d="M4770 8272 c0 -130 29 -177 32 -50 l1 88 24 -64 c40 -110 54 -98 16
15 -48 140 -74 144 -73 11z"/>
<path d="M4005 8274 c-22 -46 -46 -106 -53 -134 -8 -33 -1 -26 20 19 24 52 35
62 48 40 23 -37 32 -24 46 66 16 104 -12 109 -61 9z"/>
<path d="M4915 8348 c-22 -21 10 -85 47 -94 21 -6 43 -27 49 -47 7 -20 25 -64
41 -97 l29 -60 -12 59 c-20 99 -127 266 -154 239z"/>
<path d="M4320 8195 c1 -75 6 -96 20 -75 26 40 26 180 0 180 -11 0 -20 -47
-20 -105z"/>
<path d="M3665 8267 c-48 -20 -30 -107 23 -107 55 0 83 52 50 93 -24 28 -33
30 -73 14z"/>
<path d="M4202 8181 c-1 -78 4 -103 20 -87 15 15 15 48 2 109 l-20 87 -2 -109z"/>
<path d="M4373 8167 c-20 -141 -15 -327 7 -327 12 0 20 83 20 210 0 229 -8
261 -27 117z"/>
<path d="M4951 8155 c8 -36 21 -68 29 -71 9 -3 11 -23 6 -45 -6 -21 -1 -39 12
-39 28 0 28 18 -2 130 -28 102 -67 124 -45 25z"/>
<path d="M4000 8123 c0 -21 -6 -66 -12 -100 -9 -44 -5 -63 12 -63 15 0 21 16
14 40 -6 22 -2 40 8 40 10 0 18 27 18 60 0 33 -9 60 -20 60 -11 0 -20 -17 -20
-37z"/>
<path d="M4092 8054 c-41 -94 -67 -233 -40 -207 10 9 19 22 19 30 1 7 18 65
37 129 43 140 35 164 -16 48z"/>
<path d="M4670 8065 c14 -78 24 -98 39 -82 17 16 -14 157 -34 157 -12 0 -14
-30 -5 -75z"/>
<path d="M4860 8089 c0 -42 49 -169 65 -169 24 0 -1 107 -27 117 -10 3 -14 14
-8 23 6 10 2 23 -10 30 -11 7 -20 6 -20 -1z"/>
<path d="M5157 8060 c-14 -98 5 -421 25 -409 23 14 20 358 -2 419 -14 37 -16
36 -23 -10z"/>
<path d="M5488 8045 c-9 -30 -17 -64 -18 -75 -2 -11 -19 -56 -38 -100 -91
-210 -82 -421 36 -774 90 -273 90 -192 0 134 -90 324 -91 360 -18 574 46 136
64 169 84 152 21 -16 26 -3 26 62 0 96 -46 114 -72 27z"/>
<path d="M4144 7933 c-26 -58 -60 -101 -84 -107 -48 -13 -54 -52 -7 -42 40 7
154 185 142 221 -5 14 -28 -19 -51 -72z"/>
<path d="M2985 7923 c-47 -45 -85 -77 -85 -71 0 15 -119 -68 -185 -129 -30
-28 -55 -65 -55 -82 0 -19 19 -7 52 34 28 36 64 65 79 65 16 0 29 9 29 20 0
11 11 20 25 20 14 0 70 41 125 90 55 49 116 89 136 89 47 1 148 -51 161 -84 5
-14 10 -16 11 -5 5 125 -182 159 -293 53z"/>
<path d="M3903 7886 c-3 -122 29 -191 51 -109 5 23 9 48 6 55 -2 8 6 19 17 26
12 8 14 24 4 40 -12 20 -21 8 -33 -40 -17 -66 -18 -66 -29 42 l-12 110 -4
-124z"/>
<path d="M4620 7763 c0 -149 8 -243 20 -243 11 0 20 41 20 91 0 56 8 87 20 79
11 -7 20 -4 20 7 0 43 119 36 162 -10 24 -25 80 -70 126 -101 45 -31 87 -63
94 -73 30 -41 128 -4 134 52 4 30 -3 55 -15 55 -11 0 -21 -22 -21 -50 0 -68
-24 -63 -152 32 -144 106 -224 191 -262 278 -17 38 -35 59 -40 45 -5 -14 10
-56 34 -95 l43 -70 -50 0 c-27 0 -54 -11 -59 -25 -16 -45 -29 -7 -41 123 -19
206 -33 167 -33 -95z"/>
<path d="M4801 7985 c-1 -13 27 -70 61 -125 72 -117 124 -135 105 -35 -16 81
-27 96 -27 36 0 -60 -47 -24 -100 78 -21 39 -39 60 -39 46z"/>
<path d="M5650 7975 c-20 -53 -19 -121 1 -128 12 -4 22 27 24 73 3 79 -8 103
-25 55z"/>
<path d="M5787 7962 c-67 -42 -98 -78 -80 -96 6 -6 39 13 74 42 81 68 115 66
210 -13 44 -36 106 -79 139 -94 70 -34 190 -140 190 -168 0 -30 120 -271 142
-284 10 -6 18 -25 18 -42 0 -17 22 -49 49 -70 30 -23 45 -51 37 -69 -7 -18 6
-43 33 -62 36 -25 42 -44 33 -91 -10 -52 -8 -56 18 -35 42 35 37 85 -14 140
-25 26 -47 60 -49 76 -2 15 -18 43 -35 62 -18 19 -32 41 -32 48 0 7 -30 61
-66 119 -37 58 -90 155 -118 216 -43 93 -68 119 -159 168 -104 56 -143 84
-212 156 -44 45 -100 44 -178 -3z"/>
<path d="M3316 7900 c-10 -63 11 -82 32 -28 17 45 15 88 -6 88 -9 0 -21 -27
-26 -60z"/>
<path d="M3470 7870 c31 -261 32 -327 3 -446 -24 -100 -25 -122 -4 -105 73 61
85 388 20 554 l-29 77 10 -80z"/>
<path d="M3792 7924 c-28 -45 -10 -424 20 -424 18 0 25 9 16 24 -9 13 -13 112
-10 220 5 182 -1 220 -26 180z"/>
<path d="M4222 7859 c-53 -94 -156 -199 -281 -285 -49 -34 -79 -65 -66 -69 13
-4 53 13 90 39 58 40 107 90 280 284 29 33 50 112 29 112 -4 0 -27 -36 -52
-81z"/>
<path d="M5000 7921 c0 -10 9 -24 20 -31 11 -7 20 -33 20 -59 0 -25 14 -57 30
-71 26 -22 30 -11 27 83 -2 96 -4 100 -16 37 l-13 -70 -16 65 c-14 59 -52 92
-52 46z"/>
<path d="M3550 7841 c5 -33 17 -77 29 -99 38 -71 23 -301 -31 -482 -28 -93
-59 -208 -69 -255 -10 -47 -27 -103 -38 -124 -25 -46 -27 -81 -5 -81 14 0 74
167 74 210 0 11 5 25 11 30 13 12 84 263 120 424 23 104 21 129 -21 275 -45
160 -84 216 -70 102z"/>
<path d="M5514 7866 c-24 -38 -38 -166 -18 -166 11 0 27 37 34 81 13 78 5 120
-16 85z"/>
<path d="M3071 7796 c17 -77 48 -132 84 -145 18 -7 17 7 -6 51 -46 90 -23 136
38 77 26 -25 69 -49 95 -53 80 -11 98 -23 98 -65 0 -27 -9 -36 -30 -28 -16 6
-30 2 -30 -9 0 -25 57 -48 82 -33 25 16 23 84 -3 100 -12 7 -17 26 -11 41 12
31 11 31 -87 39 -43 4 -82 23 -105 52 -31 40 -39 43 -57 17 -17 -23 -25 -24
-32 -5 -22 54 -50 23 -36 -39z"/>
<path d="M5798 7818 c-30 -30 -71 -47 -117 -47 -60 -1 -72 -9 -77 -51 -4 -31
0 -41 11 -26 9 14 46 27 81 30 40 3 85 26 118 60 64 67 49 99 -16 34z"/>
<path d="M5890 7818 c5 -23 -9 -77 -31 -120 -22 -43 -31 -78 -20 -78 20 0 72
107 94 194 8 33 3 46 -20 46 -20 0 -28 -14 -23 -42z"/>
<path d="M4213 7747 c-26 -26 -12 -39 42 -38 41 1 54 -8 52 -35 -2 -20 7 -33
20 -28 17 6 21 -39 16 -160 -5 -107 1 -178 15 -192 16 -16 22 36 22 195 0 183
-5 221 -35 243 -37 29 -110 37 -132 15z"/>
<path d="M2816 7665 c-72 -83 -107 -166 -78 -184 22 -13 20 -19 -10 -29 -59
-18 -93 -83 -58 -112 31 -25 123 123 100 161 -7 10 -3 19 9 19 11 0 21 18 21
40 0 22 18 56 40 75 22 18 40 41 40 49 0 27 -33 17 -64 -19z"/>
<path d="M4481 7690 c-10 -36 2 -416 18 -580 l15 -160 1 170 c0 183 -25 603
-34 570z"/>
<path d="M6100 7681 c0 -10 19 -24 42 -32 23 -7 54 -43 70 -81 28 -67 68 -92
68 -43 0 38 -119 175 -151 175 -16 0 -29 -8 -29 -19z"/>
<path d="M4163 7648 c-59 -41 -55 -88 7 -88 30 0 50 11 50 29 0 15 16 31 35
35 31 7 30 10 -7 31 -33 18 -51 17 -85 -7z"/>
<path d="M4774 7667 c-24 -23 14 -107 48 -107 48 0 50 34 3 46 -33 9 -33 9 0
12 19 1 35 10 35 20 0 18 -72 43 -86 29z"/>
<path d="M6070 7599 c-8 -25 -2 -56 15 -75 15 -19 44 -79 64 -134 19 -55 52
-115 73 -133 21 -18 38 -42 38 -53 0 -11 11 -24 25 -29 14 -6 37 -52 50 -103
25 -92 69 -122 92 -62 7 17 26 30 44 30 38 0 33 82 -6 95 -15 5 -21 -3 -14
-20 17 -44 -44 -86 -80 -56 -17 14 -29 31 -28 38 4 33 -5 62 -29 87 -52 54
-123 166 -129 205 -3 21 -24 70 -46 107 -23 39 -35 85 -28 106 6 21 3 38 -8
38 -11 0 -26 -19 -33 -41z"/>
<path d="M2541 7429 c-49 -94 -96 -176 -105 -181 -9 -6 -16 -24 -16 -41 0 -16
-23 -60 -51 -97 -43 -56 -48 -75 -30 -109 23 -43 61 -56 61 -21 0 11 -9 20
-20 20 -34 0 -22 77 18 114 44 41 142 219 142 257 0 14 7 29 16 32 15 7 104
167 104 188 0 43 -45 -18 -119 -162z"/>
<path d="M3210 7540 c-7 -12 -21 -16 -30 -10 -9 6 -23 1 -30 -10 -9 -14 13
-17 64 -9 111 17 152 -20 126 -111 -25 -88 -26 -134 -2 -109 59 62 63 178 7
224 -59 48 -115 58 -135 25z"/>
<path d="M5480 7525 c0 -50 41 -190 52 -179 16 16 -16 214 -35 214 -9 0 -17
-16 -17 -35z"/>
<path d="M5640 7524 c-45 -36 -45 -204 0 -204 9 0 12 -18 6 -40 -7 -24 -1 -40
14 -40 18 0 21 19 11 65 -45 212 -32 233 126 206 68 -11 70 -10 34 19 -52 41
-137 38 -191 -6z"/>
<path d="M2850 7470 c-9 -22 -28 -70 -43 -107 -14 -36 -54 -101 -87 -143 -33
-42 -60 -84 -60 -95 0 -10 -18 -35 -40 -55 -87 -79 -68 60 24 175 34 43 39 60
20 79 -33 33 -82 -17 -88 -90 -3 -30 -15 -54 -28 -54 -21 0 -57 -117 -41 -134
35 -35 133 -40 133 -7 0 20 14 47 30 61 17 14 30 36 30 49 0 13 23 44 52 69
60 52 134 208 122 258 -7 30 -10 29 -24 -6z"/>
<path d="M5965 7476 c11 -34 71 -67 89 -49 9 9 -2 29 -23 45 -47 34 -77 36
-66 4z"/>
<path d="M6240 7459 c0 -11 14 -26 31 -32 17 -7 27 -25 21 -40 -6 -15 -2 -27
10 -27 11 0 34 -34 51 -75 29 -70 59 -104 90 -105 19 0 -89 208 -118 226 -14
9 -25 29 -25 45 0 16 -13 29 -30 29 -16 0 -30 -9 -30 -21z"/>
<path d="M2920 7372 c0 -29 -59 -153 -82 -172 -59 -51 -123 -210 -104 -260 24
-64 13 -91 -44 -106 -22 -6 -8 -9 30 -8 78 4 118 101 51 126 -46 18 -41 29 79
208 103 154 136 240 90 240 -11 0 -20 -13 -20 -28z"/>
<path d="M6040 7333 c0 -15 29 -66 65 -113 36 -47 79 -105 95 -128 17 -23 37
-45 45 -49 26 -11 16 -77 -15 -103 -74 -62 4 -130 122 -108 49 9 63 18 46 29
-15 9 -36 10 -47 2 -37 -27 -102 -15 -93 17 37 133 3 236 -101 315 -19 14 -44
57 -57 95 -23 69 -60 96 -60 43z"/>
<path d="M3650 7261 c-17 -53 2 -81 56 -83 24 0 33 -6 19 -11 -46 -19 -26 -48
25 -35 37 9 50 4 50 -17 0 -77 57 -80 130 -7 39 40 82 72 96 72 31 1 127 74
113 87 -10 11 -123 -60 -228 -143 -55 -43 -60 -44 -78 -10 -11 20 -31 45 -45
56 -14 11 -28 43 -32 70 -8 65 -87 81 -106 21z"/>
<path d="M5240 7270 c-14 -17 -19 -37 -10 -45 8 -8 19 -4 24 10 13 35 46 31
46 -5 0 -16 -13 -30 -28 -30 -39 0 -125 -74 -107 -92 9 -8 26 -5 39 8 44 44
60 24 46 -58 -15 -87 50 -116 67 -30 4 21 -2 31 -13 24 -12 -7 -16 4 -10 28 6
22 0 54 -14 70 -21 25 -18 30 18 30 51 0 60 89 10 108 -41 16 -39 16 -68 -18z"/>
<path d="M5534 7286 c-17 -28 26 -246 49 -246 22 0 21 27 -10 159 -14 60 -32
99 -39 87z"/>
<path d="M4180 7254 c0 -19 12 -40 26 -45 35 -14 47 -329 13 -349 -17 -11 -19
-51 -7 -143 l16 -127 15 110 c37 277 30 496 -18 544 -39 39 -45 40 -45 10z"/>
<path d="M4840 7247 c0 -19 6 -28 13 -20 8 7 29 -1 48 -18 22 -19 40 -24 47
-12 7 11 -7 34 -32 52 -57 40 -76 39 -76 -2z"/>
<path d="M3411 7152 c-17 -60 -30 -134 -29 -165 2 -42 5 -46 12 -17 5 22 27
93 48 158 44 138 43 132 19 132 -10 0 -32 -49 -50 -108z"/>
<path d="M4764 7219 c-13 -21 -23 -90 -22 -154 2 -137 31 -357 37 -285 2 28 8
83 13 124 5 40 0 79 -12 86 -32 20 -24 173 11 211 18 19 24 40 14 46 -9 6 -28
-7 -41 -28z"/>
<path d="M3274 7136 c-22 -69 -26 -112 -14 -124 13 -13 20 -12 20 4 0 39 1 41
29 95 21 40 23 129 2 129 -2 0 -18 -47 -37 -104z"/>
<path d="M5058 7117 c46 -45 90 -76 97 -68 16 16 -128 151 -161 151 -10 0 19
-37 64 -83z"/>
<path d="M5672 7183 c-9 -14 -5 -38 9 -54 13 -16 17 -29 9 -29 -8 0 -4 -13 10
-30 13 -16 19 -45 12 -63 -8 -19 -4 -40 7 -47 12 -7 23 -86 26 -176 3 -90 11
-164 18 -164 26 0 42 123 19 146 -12 12 -22 67 -23 123 0 117 -64 331 -87 294z"/>
<path d="M3970 7015 c-123 -125 -161 -195 -104 -195 14 0 37 -25 50 -55 52
-112 74 -145 99 -145 14 0 25 12 25 26 0 29 -58 114 -59 88 -1 -9 -12 -5 -26
10 -36 39 -81 122 -60 109 10 -6 39 16 64 49 l45 61 -47 -23 c-26 -12 3 22 63
77 61 55 103 106 95 115 -8 8 -74 -44 -145 -117z"/>
<path d="M4860 7122 c0 -10 15 -23 32 -30 21 -8 29 -27 22 -53 -9 -33 -5 -37
16 -19 32 27 124 -52 114 -96 -4 -15 12 -32 35 -38 59 -15 51 -46 -39 -146
-77 -85 -99 -146 -62 -169 10 -6 24 13 31 42 7 29 49 89 92 135 101 105 103
96 -62 256 -133 129 -179 159 -179 118z"/>
<path d="M4442 6975 c4 -299 32 -387 35 -110 2 159 -5 255 -17 255 -12 0 -19
-60 -18 -145z"/>
<path d="M3683 7068 c-21 -23 -21 -36 -2 -59 33 -40 87 -38 71 3 -7 17 -12 44
-12 60 0 36 -23 35 -57 -4z"/>
<path d="M5375 7048 c-8 -8 -4 -27 8 -42 12 -15 24 -87 27 -161 7 -244 16
-282 29 -125 13 149 -29 363 -64 328z"/>
<path d="M2453 6964 c7 -24 -7 -64 -34 -101 -24 -33 -39 -73 -33 -89 6 -17
-10 -50 -37 -75 -46 -43 -49 -79 -7 -79 11 0 16 8 10 17 -6 9 11 38 38 63 32
30 43 54 31 68 -11 14 -3 40 21 69 21 26 38 38 38 26 0 -11 -10 -27 -23 -35
-14 -9 -4 -24 30 -42 49 -25 57 -23 104 23 38 38 43 51 19 51 -17 0 -36 -13
-43 -30 -11 -30 -87 -43 -87 -15 1 28 39 77 40 50 0 -14 9 -25 20 -25 38 0 20
53 -39 109 -51 48 -57 51 -48 15z"/>
<path d="M4094 6987 c-22 -21 -16 -87 7 -87 29 0 48 59 25 82 -10 10 -25 13
-32 5z"/>
<path d="M4653 6938 c-21 -103 -15 -458 7 -458 12 0 20 100 20 260 0 267 -6
307 -27 198z"/>
<path d="M4868 6842 c0 -104 8 -160 21 -156 12 4 21 20 22 36 2 62 51 120 90
108 22 -7 39 -4 39 7 0 28 -50 42 -82 22 -20 -13 -35 3 -59 64 l-32 82 1 -163z"/>
<path d="M3244 6877 c-2 -63 -9 -130 -16 -150 -10 -35 -10 -35 11 -2 13 20 20
86 16 150 l-7 115 -4 -113z"/>
<path d="M6521 6961 c-25 -16 -25 -24 5 -56 43 -49 44 -79 1 -43 -29 25 -31
23 -19 -17 8 -25 6 -45 -4 -45 -11 0 -26 20 -34 45 l-15 45 -9 -47 c-13 -69
21 -94 75 -56 33 22 55 26 82 11 51 -27 46 -5 -14 67 -28 33 -46 73 -41 88 13
32 11 32 -27 8z"/>
<path d="M3360 6875 c0 -29 -9 -58 -20 -65 -12 -7 -15 -22 -9 -32 7 -11 2 -32
-10 -47 -16 -19 -16 -31 -2 -40 12 -8 21 -8 21 -2 0 6 32 -24 70 -66 39 -43
70 -88 70 -100 0 -13 14 -23 31 -23 37 0 -10 75 -99 158 -55 52 -66 118 -30
185 16 30 16 47 0 63 -16 16 -22 7 -22 -31z"/>
<path d="M3982 6854 c-28 -28 -29 -81 -2 -64 12 7 15 21 9 31 -6 11 -2 19 10
19 11 0 32 -18 46 -40 30 -48 66 -52 83 -8 17 45 16 45 -28 34 -22 -6 -40 -2
-40 10 0 31 -52 44 -78 18z"/>
<path d="M5602 6835 c1 -14 8 -47 16 -75 11 -39 2 -62 -43 -107 -31 -32 -51
-63 -45 -70 7 -6 37 16 68 49 64 68 97 148 62 148 -14 0 -18 16 -10 40 9 28 4
40 -19 40 -17 0 -30 -11 -29 -25z"/>
<path d="M3685 6526 c6 -173 19 -317 29 -321 10 -3 15 -33 10 -65 -5 -33 0
-60 11 -60 11 0 26 61 33 135 7 74 19 182 25 240 8 71 4 105 -11 105 -12 0
-23 -34 -24 -75 -2 -41 -9 -102 -17 -135 -20 -84 -46 151 -37 330 l6 130 97
-130 c53 -71 110 -164 127 -205 17 -41 38 -75 48 -75 26 0 23 8 -29 104 -86
158 -137 236 -155 236 -10 0 -18 10 -18 23 0 24 -59 75 -88 76 -10 1 -13 -134
-7 -313z"/>
<path d="M4523 6599 l3 -249 20 226 c14 166 14 232 -3 249 -17 17 -22 -40 -20
-226z"/>
<path d="M5204 6766 c-24 -30 -44 -68 -44 -85 1 -30 78 51 80 82 0 7 15 18 33
25 28 11 31 -5 23 -148 -5 -89 -2 -166 7 -172 9 -6 17 71 17 171 0 203 -29
235 -116 127z"/>
<path d="M3449 6709 c27 -39 52 -81 57 -95 5 -13 14 -19 21 -13 20 18 -69 179
-98 179 -20 0 -14 -21 20 -71z"/>
<path d="M6395 6768 c-50 -50 -9 -177 48 -147 25 14 37 14 37 0 0 -13 18 -12
50 3 59 26 64 46 15 52 -19 2 -53 6 -75 9 -23 3 -44 24 -50 52 -5 26 -17 40
-25 31z"/>
<path d="M2579 6700 c-2 -38 -8 -54 -13 -34 -6 22 -21 32 -38 26 -16 -6 -28 2
-28 19 0 37 -28 37 -58 2 -41 -50 6 -117 51 -72 14 14 29 11 46 -10 51 -61 96
10 61 96 -15 37 -18 34 -21 -27z"/>
<path d="M4322 6526 c-1 -143 6 -249 18 -256 13 -8 19 61 18 194 -3 305 -34
358 -36 62z"/>
<path d="M6553 6747 c-22 -23 -15 -46 12 -37 42 15 100 -43 86 -86 -7 -23 0
-49 19 -64 16 -14 30 -46 30 -72 0 -32 9 -43 28 -36 37 14 65 -32 32 -52 -14
-9 -21 -30 -14 -47 6 -17 1 -34 -12 -39 -30 -11 61 -114 99 -114 39 0 33 36
-7 44 -24 4 -36 27 -38 72 -2 42 5 63 19 57 13 -4 21 -18 18 -30 -3 -13 9 -23
27 -23 21 0 28 11 20 32 -7 19 -3 28 12 23 28 -9 66 -112 47 -131 -7 -7 -21
-1 -30 14 -9 15 -27 23 -40 19 -15 -5 -4 -29 29 -65 76 -82 104 -45 62 81 -27
83 -46 104 -127 147 -56 30 -98 66 -102 90 -3 22 -18 50 -33 61 -16 12 -20 32
-11 47 28 46 -88 147 -126 109z"/>
<path d="M4779 6705 c-1 -8 0 -123 2 -255 5 -396 30 -454 32 -75 1 190 -6 345
-15 345 -10 0 -18 -7 -19 -15z"/>
<path d="M3583 6652 c-1 -31 -13 -91 -25 -131 -19 -64 -16 -86 19 -153 39 -73
41 -75 42 -25 1 69 -18 120 -40 106 -10 -6 -8 16 3 48 11 33 17 94 13 136 -6
59 -9 64 -12 19z"/>
<path d="M3234 6654 c-6 -15 25 -68 68 -116 90 -102 95 -118 32 -118 -60 0
-94 -36 -94 -100 0 -38 -15 -57 -58 -73 -91 -35 -222 -367 -144 -367 19 0 31
66 27 155 0 14 7 25 17 25 10 0 18 18 18 39 0 53 86 141 139 141 10 0 21 29
25 65 5 57 14 66 76 75 90 13 98 58 22 132 -32 32 -72 83 -88 114 -20 38 -32
47 -40 28z"/>
<path d="M5101 6601 c-35 -65 -22 -94 19 -41 22 28 39 57 40 65 0 30 -39 14
-59 -24z"/>
<path d="M2305 6585 c-14 -4 -25 -22 -25 -40 0 -27 4 -27 37 3 36 32 39 31 49
-9 6 -24 21 -37 33 -30 48 30 16 -31 -59 -111 -72 -78 -92 -85 -81 -30 2 10
-8 25 -21 33 -12 8 -17 25 -9 37 19 32 51 27 51 -7 0 -18 12 -25 30 -18 41 15
38 42 -9 66 -41 22 -108 8 -91 -19 6 -9 -17 -23 -50 -30 -71 -16 -101 -64
-114 -183 -9 -85 2 -101 46 -72 39 26 56 107 19 93 -21 -9 -31 0 -31 27 0 56
20 68 55 32 17 -16 48 -26 69 -20 42 11 21 -29 -42 -82 -16 -14 -20 -25 -8
-25 29 0 256 221 272 263 6 19 32 38 58 43 l46 9 -45 15 c-25 8 -45 27 -45 41
0 25 -79 34 -135 14z"/>
<path d="M4423 6435 c8 -279 31 -326 34 -70 2 153 -4 235 -18 235 -13 0 -19
-60 -16 -165z"/>
<path d="M5635 6538 c-30 -33 -55 -73 -55 -89 0 -16 0 -36 -1 -44 0 -8 34 -19
75 -25 64 -8 77 -19 86 -66 6 -33 30 -66 59 -80 28 -14 64 -51 80 -84 17 -33
36 -64 41 -70 6 -5 11 -58 12 -116 1 -58 13 -117 27 -130 24 -24 22 28 -10
239 -12 77 -78 164 -142 188 -32 12 -47 34 -47 67 0 56 -20 73 -106 91 l-59
12 53 49 c30 28 63 66 74 85 32 58 -25 40 -87 -27z"/>
<path d="M6573 6584 c-6 -8 7 -37 27 -64 34 -45 39 -46 51 -15 20 53 -50 125
-78 79z"/>
<path d="M4187 6376 c0 -147 4 -183 15 -126 26 145 29 316 6 324 -15 5 -22
-58 -21 -198z"/>
<path d="M5405 6470 c1 -98 26 -117 54 -43 10 26 33 62 52 81 18 19 27 40 20
48 -8 8 -32 -7 -53 -33 -27 -34 -38 -39 -38 -16 0 17 -8 36 -18 42 -10 6 -18
-29 -17 -79z"/>
<path d="M6488 6517 c-10 -16 0 -20 30 -12 35 9 49 0 68 -42 27 -62 113 -150
131 -133 6 6 -17 38 -51 71 -35 32 -69 76 -76 99 -14 43 -79 54 -102 17z"/>
<path d="M3840 6505 c0 -49 114 -245 140 -240 34 6 54 95 21 95 -11 0 -22 -16
-22 -35 -1 -25 -7 -22 -21 13 -59 148 -118 231 -118 167z"/>
<path d="M5078 6402 c-30 -77 -55 -114 -72 -108 -17 7 -26 -6 -26 -34 0 -32 9
-41 32 -32 17 7 34 12 38 12 4 0 18 34 31 75 14 41 32 80 40 85 26 17 45 120
23 120 -11 0 -41 -53 -66 -118z"/>
<path d="M5023 6440 c-25 -73 1 -80 34 -9 28 61 28 69 5 69 -10 0 -27 -27 -39
-60z"/>
<path d="M5200 6410 c0 -38 9 -70 20 -70 11 0 20 32 20 70 0 39 -9 70 -20 70
-11 0 -20 -31 -20 -70z"/>
<path d="M5272 6408 c-19 -49 -14 -128 8 -128 11 0 20 36 20 80 0 85 -8 100
-28 48z"/>
<path d="M4673 6387 c-22 -22 -15 -407 7 -407 12 0 20 83 20 210 0 210 -2 222
-27 197z"/>
<path d="M3432 6303 c-8 -13 -23 -18 -33 -12 -11 6 -19 -3 -19 -20 0 -37 23
-40 56 -7 18 18 30 6 54 -50 34 -82 50 -93 50 -35 0 53 -89 155 -108 124z"/>
<path d="M5486 6225 c-39 -95 -40 -145 -3 -145 11 0 13 10 6 22 -24 39 53 181
84 155 16 -12 34 -16 42 -8 14 14 -48 71 -76 71 -8 0 -31 -43 -53 -95z"/>
<path d="M4540 6090 c0 -115 8 -210 18 -210 9 0 19 95 21 210 2 135 -5 210
-18 210 -13 0 -21 -77 -21 -210z"/>
<path d="M5240 6200 c0 -33 9 -60 20 -60 11 0 20 27 20 60 0 33 -9 60 -20 60
-11 0 -20 -27 -20 -60z"/>
<path d="M3833 6227 c-7 -8 -12 -55 -10 -105 l2 -92 15 100 c15 106 14 118 -7
97z"/>
<path d="M4000 6210 c0 -16 -1 -37 -1 -44 -1 -8 8 -18 20 -22 11 -4 21 16 21
44 0 29 -9 52 -20 52 -11 0 -20 -13 -20 -30z"/>
<path d="M5072 6218 c-5 -15 -14 -59 -20 -98 -6 -38 -16 -92 -23 -120 -9 -37
-7 -42 8 -20 21 33 64 245 52 258 -5 4 -12 -5 -17 -20z"/>
<path d="M5155 6145 c14 -129 25 -133 25 -8 0 57 -8 103 -18 103 -9 0 -12 -43
-7 -95z"/>
<path d="M3401 6200 c0 -16 17 -52 39 -80 29 -38 39 -42 40 -17 0 18 -18 54
-39 80 -28 33 -40 38 -40 17z"/>
<path d="M5552 6177 c-35 -51 -41 -77 -15 -77 19 0 69 101 56 114 -5 5 -23
-12 -41 -37z"/>
<path d="M4293 5855 c-11 -385 -12 -395 -38 -395 -9 0 -12 -9 -5 -20 26 -42
68 -20 68 35 -1 30 5 206 13 390 10 232 8 335 -6 335 -14 0 -25 -121 -32 -345z"/>
<path d="M5670 6160 c-7 -11 -6 -20 3 -20 8 0 -2 -12 -22 -27 -36 -26 -35 -30
18 -100 40 -53 53 -88 45 -127 -12 -64 4 -121 25 -87 24 38 -11 206 -48 233
-27 20 -30 33 -12 66 29 55 50 53 97 -8 42 -53 64 -63 64 -29 0 64 -141 146
-170 99z"/>
<path d="M3205 6119 c-38 -44 -50 -145 -16 -132 12 4 18 19 15 33 -10 44 53
120 89 106 23 -9 29 -5 19 11 -22 35 -68 28 -107 -18z"/>
<path d="M3320 6072 c0 -15 -13 -38 -30 -52 -16 -14 -30 -48 -30 -76 0 -47 5
-44 57 37 32 49 54 96 49 104 -14 25 -46 17 -46 -13z"/>
<path d="M4413 6067 c-19 -19 -14 -229 7 -277 12 -27 18 14 19 125 1 165 -1
176 -26 152z"/>
<path d="M4972 6028 c-25 -65 -13 -228 17 -228 22 0 28 29 25 130 -4 128 -18
161 -42 98z"/>
<path d="M4000 6015 c0 -14 -6 -59 -13 -100 -10 -61 -6 -75 20 -75 26 0 33 21
33 100 0 55 -9 100 -20 100 -11 0 -20 -11 -20 -25z"/>
<path d="M4157 5920 c9 -156 43 -156 43 0 0 83 -8 120 -25 120 -18 0 -23 -34
-18 -120z"/>
<path d="M3532 6003 c-6 -10 5 -23 26 -28 23 -6 44 -36 52 -77 29 -130 128
-253 330 -411 279 -218 454 -270 486 -145 14 51 -20 49 -36 -2 -26 -82 -197
-25 -346 115 -38 36 -76 65 -84 65 -39 0 -238 210 -272 285 -20 47 -43 90 -50
95 -8 6 -17 32 -21 60 -7 50 -63 79 -85 43z"/>
<path d="M3753 5990 c-7 -19 0 -30 19 -30 17 0 25 -8 19 -18 -14 -22 7 -82 29
-82 9 0 7 36 -5 80 -21 83 -43 101 -62 50z"/>
<path d="M3841 5964 c0 -37 9 -86 22 -109 17 -32 17 -45 0 -51 -36 -12 -27
-60 14 -83 56 -29 77 76 21 110 -9 6 -11 23 -5 40 6 16 0 29 -13 29 -13 0 -20
11 -15 25 5 14 2 43 -6 65 -13 32 -16 27 -18 -26z"/>
<path d="M5395 5965 c-84 -187 -293 -441 -340 -412 -12 7 -15 4 -8 -8 7 -12
-27 -47 -77 -78 -49 -31 -90 -63 -90 -70 0 -65 -229 -114 -265 -57 -30 49 -54
52 -42 5 23 -88 142 -93 266 -11 39 26 88 58 109 71 211 138 452 415 452 520
0 40 44 46 98 12 46 -29 102 -9 102 35 0 32 -2 32 -37 1 -34 -31 -39 -31 -73
7 -48 53 -66 51 -95 -15z"/>
<path d="M5165 5966 c-14 -5 -25 -26 -25 -46 0 -21 -9 -43 -20 -50 -12 -7 -15
-21 -9 -31 6 -11 4 -30 -5 -44 -8 -14 -26 -54 -38 -89 l-22 -63 47 31 c48 31
56 56 49 151 -3 39 5 55 28 55 19 0 27 9 19 22 -8 12 -3 29 11 38 29 18 1 39
-35 26z"/>
<path d="M3380 5942 c0 -18 132 -17 150 1 7 7 -25 13 -69 13 -45 1 -81 -5 -81
-14z"/>
<path d="M4682 5705 c-1 -138 6 -225 18 -225 24 0 25 256 1 370 -13 62 -17 29
-19 -145z"/>
<path d="M4795 5885 c-4 -8 -4 -68 1 -133 10 -145 43 -112 44 43 0 91 -22 136
-45 90z"/>
<path d="M5840 5855 c0 -14 13 -49 28 -78 15 -29 20 -64 11 -78 -8 -14 -12
-85 -8 -157 3 -73 7 -143 8 -157 0 -14 9 -25 18 -25 21 0 16 337 -6 445 -14
70 -51 106 -51 50z"/>
<path d="M3023 5839 c-2 -17 -21 -66 -43 -109 -22 -43 -36 -92 -30 -109 9 -31
12 -290 4 -461 -3 -76 2 -91 36 -96 35 -5 39 -18 33 -106 -6 -83 1 -108 35
-140 35 -33 42 -34 42 -8 0 17 -11 36 -25 41 -26 10 -32 159 -8 183 7 7 13 2
13 -12 0 -13 8 -19 18 -13 10 6 23 -3 30 -21 17 -44 16 -48 -18 -48 -16 0 -30
-9 -30 -20 0 -27 36 -25 67 4 19 18 20 42 5 100 -19 70 -52 105 -52 55 0 -12
-11 -15 -25 -6 -14 9 -45 13 -70 10 -54 -7 -65 76 -15 117 35 29 41 180 8 180
-14 0 -19 21 -12 55 5 30 4 91 -4 135 -11 62 -6 92 24 132 23 33 34 74 29 110
-5 32 -10 44 -12 27z"/>
<path d="M3111 5788 c-7 -29 -17 -150 -21 -270 l-9 -218 49 0 c35 0 50 11 50
36 0 19 14 55 31 80 17 24 22 44 11 44 -11 0 -34 -25 -50 -55 l-28 -55 -14 74
c-8 40 -4 103 7 140 25 76 27 276 3 276 -9 0 -22 -23 -29 -52z"/>
<path d="M4560 5675 c1 -114 7 -156 20 -135 26 40 26 300 0 300 -12 0 -20 -68
-20 -165z"/>
<path d="M3360 5750 c0 -38 -7 -70 -15 -70 -8 0 -16 -54 -16 -120 -1 -107 26
-174 34 -85 2 19 5 58 7 85 3 28 11 97 19 155 10 72 8 105 -7 105 -12 0 -22
-31 -22 -70z"/>
<path d="M3247 5630 c0 -88 3 -122 8 -74 4 47 4 119 0 160 -5 40 -8 2 -8 -86z"/>
<path d="M5991 5662 c2 -62 10 -128 19 -148 9 -22 6 -46 -7 -59 -28 -28 -30
-108 -4 -125 25 -15 42 60 34 150 -4 39 0 93 7 120 9 33 3 72 -19 112 l-33 62
3 -112z"/>
<path d="M5616 5748 c-20 -30 12 -308 38 -325 57 -37 91 -151 79 -269 -12
-107 -9 -119 27 -128 40 -11 40 -11 -1 -78 -23 -38 -34 -68 -24 -68 15 0 105
148 105 173 0 5 -18 4 -40 -3 -38 -12 -40 -4 -40 142 0 132 -7 162 -43 201
-27 29 -42 70 -41 111 1 36 -6 74 -16 86 -9 11 -20 56 -24 100 -3 44 -12 70
-20 58z"/>
<path d="M4154 5727 c-26 -42 -1 -232 34 -251 20 -11 32 -10 32 3 0 12 -10 21
-22 21 -13 0 -18 16 -13 35 13 53 -13 219 -31 192z"/>
<path d="M4415 5648 c-27 -26 -18 -208 11 -208 17 0 23 26 18 85 -9 126 -13
140 -29 123z"/>
<path d="M4807 5570 c9 -24 -1 -52 -30 -83 -54 -58 -13 -63 44 -6 45 45 45
100 1 115 -20 7 -24 -1 -15 -26z"/>
<path d="M3260 5380 c-12 -23 -16 -50 -10 -60 7 -11 3 -20 -8 -20 -11 0 -18
-17 -17 -39 4 -54 29 -32 45 39 7 33 21 65 32 71 24 15 23 49 -1 49 -11 0 -29
-18 -41 -40z"/>
<path d="M5994 5254 c-6 -16 3 -49 19 -73 35 -49 3 -111 -46 -93 -16 7 -27 -3
-28 -24 0 -30 -3 -30 -29 5 -36 46 -41 41 -56 -53 -7 -47 -2 -81 14 -95 31
-25 52 -8 52 42 0 21 9 37 20 37 11 0 20 13 20 28 0 15 23 33 50 40 57 15 63
56 23 152 -19 45 -31 55 -39 34z"/>
<path d="M4459 5209 c-21 -26 -19 -37 10 -65 33 -32 35 -32 22 11 -10 34 -6
45 19 45 18 0 27 9 20 20 -18 28 -41 25 -71 -11z"/>
<path d="M4703 5222 c-20 -12 -15 -20 20 -32 43 -15 41 -17 -23 -24 -38 -5
-77 -16 -86 -25 -21 -20 4 -121 30 -121 11 0 15 21 8 47 -12 51 -22 47 223 87
36 6 65 18 65 28 0 27 -115 22 -132 -5 -10 -16 -20 -9 -31 20 -17 46 -32 52
-74 25z"/>
<path d="M4165 5187 c-46 -19 -26 -48 25 -35 40 10 53 3 67 -33 10 -29 22 -37
30 -23 35 56 -51 119 -122 91z"/>
<path d="M5030 5183 c92 -30 120 -57 92 -90 -14 -17 -20 -40 -14 -50 7 -11 3
-23 -9 -27 -39 -13 5 -76 53 -76 50 0 68 -50 23 -66 -14 -5 -18 -16 -10 -25 9
-9 30 -2 48 15 46 46 18 116 -46 116 -41 0 -48 7 -37 35 52 122 24 186 -77
183 -49 -2 -54 -5 -23 -15z"/>
<path d="M3240 5115 c0 -51 -9 -75 -28 -75 -31 0 -31 -29 0 -90 12 -22 33 -78
48 -125 14 -47 34 -85 43 -85 9 0 17 -11 17 -25 0 -14 19 -61 42 -105 26 -47
31 -69 14 -55 -15 13 -48 18 -72 12 -49 -13 -67 62 -19 79 44 15 7 31 -50 20
-30 -6 -55 -19 -55 -30 0 -10 9 -13 20 -6 11 7 26 -4 33 -24 18 -51 69 -107
87 -96 9 5 14 -6 13 -25 -2 -23 11 -35 37 -35 22 0 41 -9 42 -20 1 -11 7 -36
15 -55 7 -19 17 -48 22 -65 22 -70 183 -99 165 -29 -8 31 -4 33 28 13 59 -36
82 5 45 81 -23 46 -52 70 -103 84 -72 20 -204 131 -204 171 0 33 -48 130 -64
130 -8 0 -10 12 -4 27 6 15 -4 33 -22 40 -18 7 -27 22 -20 32 6 11 -3 48 -21
83 -30 59 -30 66 -1 82 36 20 42 90 12 136 -14 22 -19 11 -20 -45z m400 -735
c56 -78 50 -89 -20 -37 -67 50 -94 41 -61 -21 17 -33 17 -42 -3 -42 -58 1
-107 88 -84 148 17 43 126 12 168 -48z"/>
<path d="M4118 5113 c-2 -7 -4 -20 -6 -28 -9 -43 -51 -94 -51 -62 -1 48 -54
83 -107 70 -55 -14 -116 -354 -77 -428 20 -38 103 -57 103 -24 0 11 -13 19
-28 19 -53 0 -64 368 -11 401 36 22 73 3 85 -42 17 -65 89 -49 104 22 8 34 8
67 2 74 -7 6 -13 6 -14 -2z"/>
<path d="M4800 5094 c0 -28 19 -34 101 -34 95 0 101 -3 88 -43 -9 -28 -6 -38
9 -28 60 37 22 91 -64 91 -47 0 -97 11 -110 24 -19 19 -24 16 -24 -10z"/>
<path d="M4365 5067 c-14 -6 -20 -19 -14 -29 6 -10 2 -18 -10 -18 -11 0 -21
-22 -21 -50 0 -68 36 -64 44 5 8 69 60 81 86 21 22 -51 91 -62 106 -18 6 19
-1 24 -21 17 -18 -7 -48 8 -73 37 -43 49 -53 53 -97 35z"/>
<path d="M4640 4960 c0 -11 32 -20 70 -20 39 0 70 9 70 20 0 11 -31 20 -70 20
-38 0 -70 -9 -70 -20z"/>
<path d="M5927 4890 c-34 -63 -50 -150 -27 -150 11 0 20 17 20 38 0 21 10 42
22 46 12 4 19 30 15 57 -8 47 -9 47 -30 9z"/>
<path d="M3984 4786 c0 -75 5 -103 17 -85 10 16 19 45 19 65 0 27 10 33 40 24
39 -12 39 -11 5 49 -53 93 -80 76 -81 -53z"/>
<path d="M4290 4860 c-14 -45 4 -86 31 -69 24 15 24 83 0 98 -10 6 -24 -6 -31
-29z"/>
<path d="M3140 4830 c0 -56 23 -64 59 -21 28 34 12 71 -30 71 -18 0 -29 -20
-29 -50z"/>
<path d="M5792 4847 c-12 -31 16 -66 54 -67 25 0 8 86 -19 94 -12 4 -28 -8
-35 -27z"/>
<path d="M4149 4839 c-8 -13 -5 -29 6 -36 11 -7 27 -61 35 -119 8 -65 26 -111
44 -118 34 -13 101 46 77 69 -9 8 -20 4 -25 -10 -5 -14 -22 -25 -38 -25 -28 0
-35 28 -37 168 -1 78 -34 116 -62 71z"/>
<path d="M5039 4817 c-25 -45 8 -87 49 -62 12 8 11 15 -4 20 -17 6 -18 19 -3
47 13 25 14 38 0 38 -11 0 -30 -19 -42 -43z"/>
<path d="M5724 4843 c-13 -9 -62 -91 -109 -184 -70 -138 -96 -172 -145 -186
-129 -39 -190 -95 -190 -174 0 -26 75 -24 91 3 10 16 18 16 28 0 9 -16 26 -10
51 18 48 53 24 74 -45 39 -30 -15 -63 -31 -72 -36 -23 -11 28 83 55 102 12 8
42 15 66 15 25 0 56 12 70 27 13 15 40 23 59 18 48 -13 116 91 76 116 -24 15
-23 26 6 76 19 33 35 70 35 84 0 13 16 36 35 50 38 28 29 56 -11 32z"/>
<path d="M4681 4806 c1 -75 47 -108 98 -72 38 26 54 28 86 7 41 -25 98 2 68
33 -9 8 -24 2 -34 -15 -15 -23 -18 -24 -19 -1 0 20 -20 25 -80 17 -59 -8 -80
-4 -80 16 0 15 -9 32 -20 39 -11 7 -20 -4 -19 -24z"/>
<path d="M5740 4749 c0 -23 12 -28 40 -19 23 7 40 4 40 -9 0 -11 20 -21 45
-21 40 0 38 5 -20 40 -79 48 -105 50 -105 9z"/>
<path d="M5160 4724 c0 -24 -9 -44 -20 -44 -11 0 -20 -9 -20 -20 0 -11 13 -20
29 -20 37 0 61 78 33 106 -16 16 -22 10 -22 -22z"/>
<path d="M4393 4695 c-18 -64 -16 -79 7 -65 11 7 20 30 20 53 0 31 9 37 40 27
23 -7 40 -4 40 9 0 43 -95 22 -107 -24z"/>
<path d="M4500 4670 c0 -81 111 -121 213 -76 42 18 99 37 127 41 57 9 72 20
53 39 -8 7 -71 -6 -141 -30 -158 -55 -192 -55 -192 -4 0 22 -13 40 -30 40 -16
0 -30 -4 -30 -10z"/>
<path d="M4434 4477 c-23 -13 -31 -34 -23 -64 13 -52 -119 -65 -176 -17 -31
26 -95 13 -95 -18 0 -27 35 -22 45 7 5 15 18 6 34 -22 17 -33 18 -54 4 -68
-14 -14 -15 -33 -1 -59 21 -38 62 -31 55 11 -11 72 71 127 96 63 24 -63 67
-32 67 49 0 83 33 125 62 79 9 -16 16 -90 15 -165 -1 -95 7 -143 25 -154 20
-13 22 -31 7 -73 -28 -80 -90 -74 -132 14 -43 93 -77 88 -115 -16 -39 -107
-95 -109 -86 -4 3 38 14 78 25 89 29 29 23 51 -13 51 -20 0 -28 -11 -21 -30 7
-16 4 -30 -6 -30 -9 0 -26 -27 -38 -60 -23 -66 -83 -82 -83 -23 0 21 14 76 30
123 40 115 40 196 -1 103 -16 -37 -33 -87 -37 -110 -5 -24 -14 -58 -22 -76
-23 -58 24 -119 81 -105 34 9 52 3 61 -20 28 -74 148 0 148 92 0 53 34 43 48
-14 7 -27 26 -50 42 -50 17 0 30 -9 30 -20 0 -32 51 -23 85 15 38 44 66 165
38 165 -11 0 -20 37 -19 82 0 55 7 73 18 55 12 -18 17 -19 18 -3 0 13 -9 29
-20 36 -11 7 -20 37 -21 66 0 68 -76 129 -125 101z"/>
<path d="M5583 4430 c-61 -64 -31 -64 47 -1 38 31 49 50 30 50 -16 0 -51 -22
-77 -49z"/>
<path d="M4730 4379 c-8 -23 -25 -37 -40 -32 -17 7 -22 -3 -15 -28 11 -46 45
-52 45 -9 0 17 8 30 18 30 9 0 22 18 28 40 14 53 -20 52 -36 -1z"/>
<path d="M4820 4339 c-15 -46 -39 -88 -53 -93 -44 -17 -55 -125 -16 -167 44
-49 60 -37 29 22 -26 47 -12 89 65 204 25 36 32 65 20 86 -14 24 -24 13 -45
-52z"/>
<path d="M5520 4332 c0 -29 -108 -77 -128 -57 -7 6 -12 3 -12 -8 0 -40 24 -42
101 -12 73 29 115 105 59 105 -11 0 -20 -13 -20 -28z"/>
<path d="M4623 4002 c-34 -21 1 -47 43 -31 17 7 36 2 43 -10 25 -39 91 -24 91
21 0 35 -5 38 -28 19 -20 -16 -33 -16 -41 -2 -16 25 -71 27 -108 3z"/>
</g>
</svg>
